<?xml version="1.0" standalone="no"?>
<!DOCTYPE svg PUBLIC "-//W3C//DTD SVG 20010904//EN"
 "http://www.w3.org/TR/2001/REC-SVG-20010904/DTD/svg10.dtd">
<svg version="1.0" xmlns="http://www.w3.org/2000/svg"
 width="660.000000pt" height="660.000000pt" viewBox="0 0 660.000000 660.000000"
 preserveAspectRatio="xMidYMid meet">
<metadata>
Created by potrace 1.11, written by Peter Selinger 2001-2013
</metadata>
<g transform="translate(0.000000,660.000000) scale(0.100000,-0.100000)"
fill="#000000" stroke="none">
<path d="M3417 6122 l-477 -477 478 -478 477 -477 478 478 477 477 -478 478
-477 477 -478 -478z"/>
<path d="M2249 4954 l-475 -475 474 -475 c261 -261 477 -474 481 -474 3 0 219
213 480 474 l473 474 -476 476 c-261 262 -477 476 -478 476 -2 0 -217 -214
-479 -476z"/>
<path d="M4580 4955 l-474 -476 477 -477 477 -477 477 477 478 478 -475 475
c-261 261 -477 475 -480 475 -3 0 -219 -214 -480 -475z"/>
<path d="M1080 3785 l-474 -474 477 -478 478 -477 474 474 c261 261 475 477
475 480 0 7 -937 944 -947 947 -5 2 -222 -211 -483 -472z"/>
<path d="M2248 2622 l-476 -477 477 -477 477 -477 473 473 c261 260 474 477
474 481 0 6 -725 736 -912 919 l-36 35 -477 -477z"/>
<path d="M4577 2618 l-468 -470 23 -25 c13 -14 227 -229 477 -479 l453 -453
474 474 c261 261 474 477 474 480 0 13 -941 945 -952 944 -7 -1 -224 -213
-481 -471z"/>
<path d="M3412 1453 l-473 -475 477 -478 478 -477 477 477 478 478 -474 473
c-260 260 -477 474 -482 475 -4 1 -221 -212 -481 -473z"/>
</g>
</svg>
